<svg width="1440" height="551" viewBox="0 0 1440 551" fill="none" xmlns="http://www.w3.org/2000/svg">
<g clip-path="url(#clip0_52_3)">
<path d="M562.996 227.122C562.996 214.374 552.684 204.052 539.949 204.052H524.171C519.96 204.052 516.54 200.629 516.54 196.414C516.54 186.695 508.669 178.798 498.941 178.798H379.682C375.472 178.798 372.051 182.222 372.051 186.436V196.397C372.051 200.612 368.631 204.035 364.421 204.035H304.972C296.928 204.035 290.415 210.555 290.415 218.606C290.415 226.657 296.928 233.177 304.972 233.177H410.876C415.087 233.177 418.507 236.601 418.507 240.815C418.507 245.03 415.087 248.454 410.876 248.454H-12.1406V637.105H1450.14V248.488H584.359C572.569 248.488 562.996 238.923 562.996 227.105V227.122Z" fill="url(#paint0_linear_52_3)"/>
<path d="M373.134 74.3585L222.647 89.8413C215.016 91.3723 211.304 92.7142 207.832 100.008L210.72 180.725C211.545 187.09 216.426 190.204 222.08 191.804L378.926 196.087L373.134 74.3585ZM220.997 184.389L217.474 179.831L214.948 101.643C216.408 97.9955 222.218 97.0493 222.218 97.0493L253.549 93.0754L257.949 185.318L220.997 184.389ZM347.732 188.759L344.415 84.9556L368.15 82.53L372.034 189.206L347.732 188.759Z" fill="#8C181B"/>
<path d="M257.949 185.318L220.997 184.389L217.474 179.831L214.948 101.643C216.408 97.9955 222.217 97.0493 222.217 97.0493L253.549 93.0754L257.949 185.318Z" fill="white"/>
<path d="M372.034 189.206L347.732 188.759L344.415 84.9556L368.15 82.5299L372.034 189.206Z" fill="white"/>
<path d="M434.817 180.553L416.496 76.8873L396.405 73.7908C394.566 59.8563 386.763 67.202 376.554 65.1204L375.265 69.8169L399.671 207.94L415.998 202.005C418.542 199.872 417.803 195.606 416.307 192.939C417.373 188.725 436.175 188.346 434.817 180.553ZM405.841 199.339L402.352 185.095C398.072 149.329 388.155 113.341 383.498 77.7991C383.24 75.9412 382.037 72.8962 384.477 71.8296L389.273 74.6509L410.412 196.741L405.841 199.339ZM397.024 81.3945C401.303 82.5299 409.673 80.3279 411.443 84.9556L427.29 180.897L416.703 185.697L397.024 81.3945Z" fill="#8C181B"/>
<path d="M427.29 180.897L416.703 185.697L397.024 81.3945C401.303 82.5299 409.673 80.3279 411.443 84.9556L427.29 180.897Z" fill="white"/>
<path d="M410.412 196.741L405.841 199.339L402.352 185.095C398.072 149.329 388.155 113.341 383.498 77.7991C383.24 75.9412 382.037 72.8962 384.478 71.8296L389.273 74.6509L410.412 196.741Z" fill="white"/>
<path d="M253.549 93.0926L344.415 84.9556L347.732 188.759L257.949 185.336L253.549 93.0926Z" fill="black"/>
<rect x="555" y="182" width="22" height="14" rx="7" fill="#0F0808"/>
<rect x="603" y="212" width="11" height="10" rx="5" fill="#0F0808"/>
<rect x="256" y="229" width="12" height="7" rx="3.5" fill="#0F0808"/>
</g>
<g clip-path="url(#clip1_52_3)">
<path d="M315.176 165.643L315.295 168.43L294.401 169.327L294.281 166.539L315.176 165.643Z" fill="white"/>
<path d="M314.445 148.607L314.564 151.395L293.67 152.291L293.55 149.503L314.445 148.607Z" fill="white"/>
<path d="M314.81 157.123L314.93 159.911L294.035 160.807L293.916 158.019L314.81 157.123Z" fill="white"/>
<path d="M302.296 104.02L302.51 109.024C302.513 109.09 302.528 109.151 302.55 109.208C302.576 109.269 302.606 109.317 302.643 109.36C302.68 109.404 302.725 109.435 302.777 109.458C302.829 109.48 302.881 109.49 302.936 109.488C302.991 109.486 303.042 109.471 303.092 109.444C303.142 109.417 303.183 109.378 303.217 109.336C303.25 109.289 303.28 109.238 303.297 109.176C303.314 109.117 303.323 109.051 303.32 108.989L303.105 103.985L303.581 103.965L303.796 108.965C303.802 109.105 303.784 109.233 303.746 109.358C303.708 109.484 303.649 109.593 303.579 109.691C303.504 109.789 303.417 109.867 303.309 109.925C303.205 109.983 303.089 110.017 302.963 110.022C302.837 110.028 302.714 110.008 302.606 109.959C302.497 109.91 302.4 109.84 302.317 109.753C302.234 109.662 302.167 109.558 302.118 109.436C302.07 109.315 302.041 109.184 302.035 109.045L301.844 104.591L300.554 104.647L300.531 104.096L302.296 104.02Z" fill="white"/>
<path d="M303.383 110.371L303.859 110.35L304.074 115.35C304.08 115.507 304.063 115.652 304.017 115.785C303.972 115.915 303.91 116.029 303.827 116.119C303.744 116.213 303.653 116.283 303.545 116.333C303.441 116.383 303.332 116.412 303.218 116.417C303.103 116.422 302.992 116.402 302.884 116.353C302.772 116.304 302.674 116.226 302.583 116.123C302.5 116.028 302.436 115.927 302.392 115.814C302.348 115.701 302.323 115.574 302.312 115.426L302.312 115.405L301.071 116.695L301.043 116.041L302.277 114.698L302.118 110.981L300.828 111.037L300.805 110.486L302.57 110.41L302.787 115.467C302.808 115.582 302.855 115.683 302.933 115.762C303.012 115.841 303.104 115.882 303.21 115.878C303.316 115.873 303.405 115.828 303.476 115.739C303.551 115.653 303.59 115.548 303.597 115.433L303.38 110.371L303.383 110.371Z" fill="white"/>
<path d="M301.613 118.022L301.79 122.147C301.792 122.204 301.802 122.257 301.824 122.306C301.846 122.354 301.871 122.395 301.904 122.43C301.937 122.466 301.974 122.493 302.014 122.512C302.054 122.531 302.098 122.541 302.141 122.539L303.576 122.478C303.619 122.476 303.662 122.462 303.7 122.44C303.739 122.417 303.773 122.387 303.803 122.349C303.833 122.31 303.855 122.268 303.868 122.218C303.882 122.168 303.891 122.114 303.889 122.057L303.712 117.932C303.709 117.875 303.699 117.822 303.677 117.773C303.66 117.725 303.63 117.685 303.601 117.649C303.568 117.613 303.532 117.586 303.491 117.567C303.451 117.548 303.407 117.538 303.364 117.54L301.929 117.601C301.886 117.603 301.843 117.617 301.805 117.639C301.766 117.662 301.728 117.692 301.702 117.73C301.673 117.769 301.651 117.811 301.633 117.861C301.616 117.911 301.61 117.965 301.613 118.022ZM304.199 117.916L304.376 122.04C304.382 122.167 304.368 122.292 304.329 122.409C304.291 122.526 304.236 122.631 304.169 122.72C304.098 122.81 304.015 122.883 303.919 122.937C303.823 122.991 303.717 123.02 303.603 123.025L302.169 123.086C302.055 123.091 301.947 123.071 301.847 123.026C301.747 122.981 301.657 122.915 301.579 122.831C301.5 122.748 301.437 122.648 301.393 122.535C301.344 122.421 301.319 122.299 301.314 122.171L301.137 118.047C301.131 117.915 301.146 117.791 301.184 117.674C301.222 117.557 301.277 117.456 301.344 117.363C301.415 117.273 301.498 117.199 301.595 117.146C301.691 117.092 301.796 117.063 301.91 117.058L303.345 116.997C303.459 116.992 303.566 117.012 303.666 117.057C303.767 117.102 303.856 117.168 303.935 117.251C304.013 117.335 304.076 117.435 304.121 117.548C304.169 117.662 304.194 117.784 304.199 117.916Z" fill="white"/>
<path d="M302.247 123.441L302.274 123.44L302.298 123.991L302.27 123.992C302.215 123.995 302.165 124.009 302.115 124.036C302.065 124.063 302.023 124.098 301.989 124.14C301.956 124.183 301.926 124.234 301.909 124.292C301.888 124.351 301.883 124.413 301.886 124.478L302.017 127.534C302.02 127.599 302.034 127.66 302.056 127.717C302.082 127.774 302.112 127.822 302.149 127.866C302.186 127.909 302.231 127.94 302.283 127.963C302.335 127.985 302.387 127.995 302.442 127.993L304.62 127.9L304.644 128.451L302.466 128.544C302.336 128.55 302.217 128.526 302.108 128.473C302 128.42 301.902 128.35 301.819 128.259C301.737 128.168 301.669 128.059 301.621 127.942C301.572 127.82 301.543 127.694 301.537 127.558L301.406 124.503C301.401 124.371 301.419 124.243 301.457 124.118C301.495 123.993 301.553 123.883 301.627 123.785C301.702 123.687 301.793 123.605 301.897 123.547C302.001 123.485 302.117 123.451 302.243 123.446L302.247 123.441Z" fill="white"/>
<path d="M302.076 128.919L302.337 134.997L301.857 135.017L301.596 128.94L302.076 128.919ZM303.138 134.666L302.89 128.88L303.361 128.86L303.61 134.645L303.138 134.666ZM304.912 134.882L304.436 134.902L304.175 128.825L304.655 128.804L304.916 134.882L304.912 134.882Z" fill="white"/>
<path d="M303.403 135.334L303.415 135.333C303.627 135.324 303.83 135.365 304.019 135.456C304.208 135.547 304.374 135.671 304.519 135.826C304.664 135.984 304.778 136.165 304.866 136.379C304.953 136.59 304.998 136.81 305.008 137.045L305.049 137.99C305.065 138.361 305.082 138.763 305.1 139.191C305.119 139.623 305.138 140.067 305.158 140.527L305.356 145.153L304.881 145.174L304.763 142.431L302.176 142.542L302.152 141.991L304.743 141.88L304.537 137.069C304.531 136.925 304.505 136.786 304.456 136.656C304.407 136.527 304.343 136.41 304.264 136.306C304.185 136.203 304.09 136.116 303.985 136.046C303.879 135.977 303.767 135.928 303.648 135.904L303.584 135.891C303.56 135.883 303.537 135.88 303.509 135.881C303.482 135.883 303.454 135.876 303.422 135.877C303.285 135.883 303.156 135.921 303.029 135.989C302.906 136.056 302.796 136.147 302.702 136.258C302.608 136.369 302.535 136.504 302.483 136.655C302.43 136.805 302.41 136.971 302.417 137.144L302.6 141.403L302.124 141.424L301.941 137.164C301.931 136.925 301.961 136.698 302.03 136.476C302.099 136.255 302.202 136.065 302.332 135.895C302.463 135.729 302.618 135.59 302.799 135.492C302.98 135.389 303.178 135.335 303.395 135.326L303.403 135.334Z" fill="white"/>
<path d="M312.513 103.582L312.965 114.116L309.23 124.456L313.837 134.437L314.281 144.787L305.02 124.64L306.881 119.284L312.513 103.582Z" fill="white"/>
<path d="M293.406 145.678L292.954 135.144L296.689 124.804L292.082 114.823L291.638 104.477L300.899 124.624L299.038 129.981L293.406 145.678Z" fill="white"/>
</g>
<path d="M235.267 61.516L234.736 59.5339L240.645 57.9504L241.176 59.9325L235.267 61.516ZM242.572 51.6315L239.635 52.4183L239.07 50.3077L244.264 48.9161L247.858 62.3318L245.601 62.9367L242.572 51.6315ZM253.704 55.8873C252.952 53.0793 254.274 50.6006 256.954 49.8826C259.431 49.2187 261.489 50.1427 262.312 52.2628L260.073 52.8627C259.541 51.9038 258.646 51.5732 257.581 51.8584C256.15 52.242 255.486 53.5805 255.943 55.2873C256.4 56.9941 257.567 57.8225 258.998 57.4389C260.118 57.139 260.759 56.3769 260.732 55.322L262.99 54.7171C263.28 56.9014 261.906 58.8234 259.539 59.4577C256.786 60.1954 254.476 58.7686 253.704 55.8873ZM263.794 53.1836C263.037 50.3573 264.553 47.866 267.361 47.1136C270.169 46.3613 272.727 47.7608 273.485 50.5871C274.242 53.4134 272.726 55.9046 269.918 56.657C267.11 57.4094 264.552 56.0099 263.794 53.1836ZM266.033 52.5836C266.476 54.2353 267.84 55.0696 269.382 54.6566C270.924 54.2435 271.688 52.8388 271.246 51.187C270.803 49.5353 269.439 48.701 267.897 49.1141C266.355 49.5272 265.591 50.9319 266.033 52.5836ZM273.114 45.8474L274.418 45.4982L274.122 44.3971C273.464 41.9378 274.473 40.5658 276.437 40.0397C276.785 39.9462 277.212 39.8515 277.617 39.8216L278.129 41.7303L277.34 41.9417C276.202 42.2466 276.102 42.9028 276.343 43.802L276.638 44.9032L280.345 43.9098L280.05 42.8087C279.391 40.3494 280.401 38.9775 282.364 38.4513C282.731 38.3529 283.14 38.2631 283.545 38.2332L284.057 40.1419L283.286 40.3485C282.148 40.6533 282.03 41.3144 282.271 42.2137L282.566 43.3148L284.732 42.7345L285.233 44.6065L283.068 45.1868L284.995 52.381L282.775 52.976L280.847 45.7818L277.14 46.7752L279.067 53.9694L276.847 54.5644L274.919 47.3702L273.616 47.7193L273.114 45.8474ZM292.445 50.6405C289.748 51.3633 287.331 49.9061 286.579 47.0982C285.817 44.2535 287.144 41.7931 289.805 41.0801C292.521 40.3523 294.733 41.7069 295.491 44.5332L295.673 45.2123L288.85 47.06C289.443 48.6124 290.504 49.1937 291.99 48.7954C293.22 48.4659 293.9 47.7723 293.926 46.8409L295.999 46.2852C296.145 48.3706 294.813 50.0061 292.445 50.6405ZM290.315 42.9104C288.994 43.2645 288.378 44.1966 288.522 45.6137L293.073 44.3942C292.739 43.1462 291.655 42.5514 290.315 42.9104ZM302.661 47.9031C299.963 48.626 297.547 47.1688 296.795 44.3609C296.032 41.5162 297.36 39.0558 300.021 38.3428C302.737 37.615 304.949 38.9696 305.706 41.7959L305.888 42.475L299.066 44.3226C299.659 45.8751 300.72 46.4564 302.206 46.0581C303.436 45.7286 304.116 45.035 304.141 44.1036L306.215 43.5479C306.361 45.6333 305.029 47.2688 302.661 47.9031ZM300.531 40.1731C299.21 40.5272 298.594 41.4593 298.738 42.8764L303.289 41.6568C302.955 40.4089 301.871 39.8141 300.531 40.1731Z" fill="black"/>
<path d="M183.569 35.5967C185.063 41.172 182.446 46.0723 177.172 47.4855C171.924 48.8919 167.264 45.9682 165.763 40.3678C164.27 34.7925 166.861 29.8989 172.11 28.4925C177.359 27.0861 182.069 29.9963 183.569 35.5967ZM180.179 36.5052C179.129 32.5874 176.303 30.6798 172.938 31.5815C169.573 32.4833 168.079 35.5483 169.129 39.4661C170.179 43.3839 173.005 45.2914 176.37 44.3897C179.735 43.488 181.215 40.3727 180.179 36.5052ZM186.175 38.0748C185.139 34.2072 187.213 30.7982 191.055 29.7686C194.898 28.739 198.399 30.6541 199.435 34.5217C200.471 38.3893 198.397 41.7983 194.555 42.8279C190.712 43.8575 187.211 41.9423 186.175 38.0748ZM189.239 37.2538C189.844 39.5141 191.712 40.6557 193.821 40.0905C195.931 39.5252 196.977 37.603 196.371 35.3427C195.766 33.0824 193.899 31.9408 191.789 32.506C189.679 33.0713 188.633 34.9935 189.239 37.2538ZM201.135 34.0661C200.099 30.1986 202.174 26.7895 206.016 25.7599C209.858 24.7303 213.359 26.6455 214.396 30.513C215.432 34.3806 213.358 37.7897 209.515 38.8192C205.673 39.8488 202.172 37.9337 201.135 34.0661ZM204.199 33.2451C204.805 35.5054 206.672 36.6471 208.782 36.0818C210.891 35.5165 211.937 33.5943 211.332 31.334C210.726 29.0738 208.859 27.9321 206.749 28.4974C204.64 29.0626 203.594 30.9849 204.199 33.2451ZM220.034 41.8417L215.169 23.6842L218.007 22.9238L218.712 24.7536C219.082 23.1202 220.493 21.854 222.376 21.3493C225.867 20.4139 228.857 22.3314 229.9 26.224C230.937 30.0916 229.581 33.4696 225.889 34.4589C224.03 34.9568 222.228 34.6592 221.113 33.6121L223.098 41.0207L220.034 41.8417ZM219.92 29.0597C220.519 31.2949 222.311 32.4567 224.42 31.8915C226.58 31.3127 227.444 29.4125 226.852 27.2024C226.259 24.9924 224.555 23.7534 222.395 24.3321C220.285 24.8974 219.321 26.8246 219.92 29.0597ZM232.079 28.4128L234.992 27.6322C235.306 28.7054 236.292 29.1681 237.698 28.7913C239.13 28.4077 239.753 27.6215 239.511 26.7174C239.343 26.0895 238.895 25.725 237.723 25.7699L235.346 25.8414C232.977 25.9381 231.614 25.1726 231.083 23.1886C230.43 20.7525 232.099 18.7441 234.962 17.977C237.75 17.23 240.064 18.3326 240.735 20.7369L237.822 21.5175C237.514 20.4694 236.629 19.9797 235.449 20.296C234.243 20.619 233.688 21.3599 233.937 22.2892C234.125 22.9924 234.799 23.2964 235.921 23.2649L238.298 23.1934C240.51 23.112 241.82 23.7837 242.332 25.6924C243.005 28.2038 241.287 30.3328 238.223 31.1538C235.134 31.9815 232.731 30.8489 232.079 28.4128ZM247.734 28.5786C246.629 28.8747 245.457 28.2195 245.168 27.1396C244.872 26.0346 245.559 24.8815 246.664 24.5854C247.769 24.2893 248.94 24.9445 249.237 26.0495C249.526 27.1294 248.839 28.2825 247.734 28.5786Z" fill="black"/>
<defs>
<linearGradient id="paint0_linear_52_3" x1="719" y1="48.4507" x2="719" y2="773.199" gradientUnits="userSpaceOnUse">
<stop offset="0.16" stop-color="#0E0707"/>
<stop offset="0.34" stop-color="#110707"/>
<stop offset="0.47" stop-color="#1A0808"/>
<stop offset="0.59" stop-color="#2A0A0B"/>
<stop offset="0.7" stop-color="#410D0F"/>
<stop offset="0.8" stop-color="#5F1113"/>
<stop offset="0.9" stop-color="#821619"/>
<stop offset="0.92" stop-color="#8C181B"/>
</linearGradient>
<clipPath id="clip0_52_3">
<rect width="1464" height="573" fill="white" transform="translate(-13 65)"/>
</clipPath>
<clipPath id="clip1_52_3">
<rect width="64.9043" height="20.9136" fill="white" transform="translate(312.513 103.582) rotate(87.5433)"/>
</clipPath>
</defs>
</svg>
