<svg width="1440" height="486" viewBox="0 0 1440 486" fill="none" xmlns="http://www.w3.org/2000/svg">
<g clip-path="url(#clip0_52_2)">
<path d="M562.996 162.122C562.996 149.374 552.684 139.052 539.949 139.052H524.171C519.96 139.052 516.54 135.629 516.54 131.414C516.54 121.695 508.669 113.798 498.941 113.798H379.682C375.472 113.798 372.051 117.222 372.051 121.436V131.397C372.051 135.612 368.631 139.035 364.421 139.035H304.972C296.928 139.035 290.415 145.555 290.415 153.606C290.415 161.657 296.928 168.177 304.972 168.177H410.876C415.087 168.177 418.507 171.601 418.507 175.815C418.507 180.03 415.087 183.454 410.876 183.454H-12.1406V572.105H1450.14V183.488H584.359C572.569 183.488 562.996 173.923 562.996 162.105V162.122Z" fill="url(#paint0_linear_52_2)"/>
<path d="M373.134 9.35849L222.647 24.8413C215.016 26.3723 211.304 27.7142 207.832 35.0083L210.72 115.725C211.545 122.09 216.426 125.204 222.08 126.804L378.926 131.087L373.134 9.35849ZM220.997 119.389L217.474 114.831L214.948 36.6426C216.408 32.9955 222.218 32.0493 222.218 32.0493L253.549 28.0754L257.949 120.318L220.997 119.389ZM347.732 123.759L344.415 19.9556L368.15 17.53L372.034 124.206L347.732 123.759Z" fill="#8C181B"/>
<path d="M257.949 120.318L220.997 119.389L217.474 114.831L214.948 36.6426C216.408 32.9955 222.217 32.0493 222.217 32.0493L253.549 28.0754L257.949 120.318Z" fill="white"/>
<path d="M372.034 124.206L347.732 123.759L344.415 19.9556L368.15 17.5299L372.034 124.206Z" fill="white"/>
<path d="M434.817 115.553L416.496 11.8873L396.405 8.79078C394.566 -5.14371 386.763 2.202 376.554 0.120428L375.265 4.81687L399.671 142.94L415.998 137.005C418.542 134.872 417.803 130.606 416.307 127.939C417.373 123.725 436.175 123.346 434.817 115.553ZM405.841 134.339L402.352 120.095C398.072 84.3295 388.155 48.3406 383.498 12.7991C383.24 10.9412 382.037 7.89622 384.477 6.82963L389.273 9.65093L410.412 131.741L405.841 134.339ZM397.024 16.3945C401.303 17.5299 409.673 15.3279 411.443 19.9556L427.29 115.897L416.703 120.697L397.024 16.3945Z" fill="#8C181B"/>
<path d="M427.29 115.897L416.703 120.697L397.024 16.3945C401.303 17.5299 409.673 15.3279 411.443 19.9556L427.29 115.897Z" fill="white"/>
<path d="M410.412 131.741L405.841 134.339L402.352 120.095C398.072 84.3295 388.155 48.3406 383.498 12.7991C383.24 10.9412 382.037 7.89621 384.478 6.82962L389.273 9.65092L410.412 131.741Z" fill="white"/>
<path d="M253.549 28.0926L344.415 19.9556L347.732 123.759L257.949 120.336L253.549 28.0926Z" fill="black"/>
<rect x="555" y="117" width="22" height="14" rx="7" fill="#0F0808"/>
<rect x="603" y="147" width="11" height="10" rx="5" fill="#0F0808"/>
<rect x="256" y="164" width="12" height="7" rx="3.5" fill="#0F0808"/>
</g>
<g clip-path="url(#clip1_52_2)">
<path d="M315.176 100.643L315.295 103.43L294.401 104.327L294.281 101.539L315.176 100.643Z" fill="white"/>
<path d="M314.445 83.6069L314.564 86.3948L293.67 87.2912L293.55 84.5033L314.445 83.6069Z" fill="white"/>
<path d="M314.81 92.1227L314.93 94.9105L294.035 95.807L293.916 93.0191L314.81 92.1227Z" fill="white"/>
<path d="M302.296 39.02L302.51 44.0241C302.513 44.0899 302.528 44.1511 302.55 44.2078C302.576 44.2685 302.606 44.3167 302.643 44.3604C302.68 44.4041 302.725 44.4351 302.777 44.4576C302.829 44.4801 302.881 44.4902 302.936 44.4879C302.991 44.4855 303.042 44.471 303.092 44.4441C303.142 44.4173 303.183 44.3784 303.217 44.3358C303.25 44.289 303.28 44.2383 303.297 44.1758C303.314 44.1174 303.323 44.0511 303.32 43.9894L303.105 38.9852L303.581 38.9648L303.796 43.9649C303.802 44.1047 303.784 44.2332 303.746 44.3584C303.708 44.4836 303.649 44.5932 303.579 44.691C303.504 44.7889 303.417 44.8668 303.309 44.925C303.205 44.983 303.089 45.0168 302.963 45.0222C302.837 45.0276 302.714 45.0082 302.606 44.9593C302.497 44.9104 302.4 44.8404 302.317 44.7533C302.234 44.6621 302.167 44.5579 302.118 44.4364C302.07 44.3149 302.041 44.1844 302.035 44.0446L301.844 39.5914L300.554 39.6467L300.531 39.0957L302.296 39.02Z" fill="white"/>
<path d="M303.383 45.3708L303.859 45.3504L304.074 50.3505C304.08 50.5067 304.063 50.6517 304.017 50.7854C303.972 50.9151 303.91 51.029 303.827 51.119C303.744 51.2132 303.653 51.283 303.545 51.333C303.441 51.3828 303.332 51.4122 303.218 51.4171C303.103 51.422 302.992 51.402 302.884 51.3531C302.772 51.3044 302.674 51.2262 302.583 51.123C302.5 51.0277 302.436 50.9274 302.392 50.814C302.348 50.7005 302.323 50.5739 302.312 50.426L302.312 50.4055L301.071 51.6945L301.043 51.0407L302.277 49.6984L302.118 45.9812L300.828 46.0366L300.805 45.4856L302.57 45.4098L302.787 50.4675C302.808 50.5819 302.855 50.6829 302.933 50.7619C303.012 50.8409 303.104 50.8823 303.21 50.8777C303.316 50.8732 303.405 50.8282 303.476 50.7386C303.551 50.653 303.59 50.5484 303.597 50.4327L303.38 45.371L303.383 45.3708Z" fill="white"/>
<path d="M301.613 53.0225L301.79 57.1467C301.792 57.2043 301.802 57.2574 301.824 57.3059C301.846 57.3544 301.871 57.3945 301.904 57.4302C301.937 57.4658 301.974 57.4931 302.014 57.512C302.054 57.5309 302.098 57.5413 302.141 57.5395L303.576 57.4779C303.619 57.4761 303.662 57.4619 303.7 57.4396C303.739 57.4174 303.773 57.3871 303.803 57.3487C303.833 57.3104 303.855 57.2682 303.868 57.2182C303.882 57.1682 303.891 57.1142 303.889 57.0567L303.712 52.9324C303.709 52.8749 303.699 52.8217 303.677 52.7732C303.66 52.7246 303.63 52.6846 303.601 52.6488C303.568 52.6132 303.532 52.5859 303.491 52.567C303.451 52.5481 303.407 52.5377 303.364 52.5395L301.929 52.6011C301.886 52.6029 301.843 52.6171 301.805 52.6394C301.766 52.6616 301.728 52.6921 301.702 52.7303C301.673 52.7686 301.651 52.8108 301.633 52.861C301.616 52.9111 301.61 52.9649 301.613 53.0225ZM304.199 52.9156L304.376 57.0399C304.382 57.1673 304.368 57.2915 304.329 57.4085C304.291 57.5255 304.236 57.6308 304.169 57.7202C304.098 57.8098 304.015 57.8834 303.919 57.937C303.823 57.9905 303.717 58.0197 303.603 58.0246L302.169 58.0862C302.055 58.0911 301.947 58.071 301.847 58.0258C301.747 57.9807 301.657 57.9145 301.579 57.8314C301.5 57.7482 301.437 57.648 301.393 57.5345C301.344 57.4212 301.319 57.2987 301.314 57.1713L301.137 53.047C301.131 52.9154 301.146 52.7912 301.184 52.6742C301.222 52.5573 301.277 52.456 301.344 52.3625C301.415 52.273 301.498 52.1994 301.595 52.1458C301.691 52.0923 301.796 52.063 301.91 52.0581L303.345 51.9966C303.459 51.9917 303.566 52.0118 303.666 52.0569C303.767 52.1021 303.856 52.1683 303.935 52.2514C304.013 52.3345 304.076 52.4348 304.121 52.5483C304.169 52.6615 304.194 52.784 304.199 52.9156Z" fill="white"/>
<path d="M302.247 58.4412L302.274 58.4401L302.298 58.9911L302.27 58.9922C302.215 58.9946 302.165 59.0091 302.115 59.036C302.065 59.0629 302.023 59.0976 301.989 59.1402C301.956 59.1829 301.926 59.2336 301.909 59.292C301.888 59.3506 301.883 59.4126 301.886 59.4784L302.017 62.5335C302.02 62.5993 302.034 62.6605 302.056 62.7172C302.082 62.7738 302.112 62.8219 302.149 62.8656C302.186 62.9093 302.231 62.9404 302.283 62.9629C302.335 62.9853 302.387 62.9955 302.442 62.9931L304.62 62.8997L304.644 63.4507L302.466 63.5441C302.336 63.5497 302.217 63.526 302.108 63.4729C302 63.4199 301.902 63.35 301.819 63.2588C301.737 63.1676 301.669 63.0592 301.621 62.9419C301.572 62.8204 301.543 62.6939 301.537 62.5582L301.406 59.5031C301.401 59.3715 301.419 59.243 301.457 59.1178C301.495 58.9926 301.553 58.883 301.627 58.785C301.702 58.6871 301.793 58.6049 301.897 58.5469C302.001 58.4848 302.117 58.4509 302.243 58.4455L302.247 58.4412Z" fill="white"/>
<path d="M302.076 63.9192L302.337 69.9966L301.857 70.0172L301.596 63.9398L302.076 63.9192ZM303.138 69.6656L302.89 63.8802L303.361 63.8599L303.61 69.6454L303.138 69.6656ZM304.912 69.882L304.436 69.9024L304.175 63.825L304.655 63.8044L304.916 69.8818L304.912 69.882Z" fill="white"/>
<path d="M303.403 70.334L303.415 70.3335C303.627 70.3243 303.83 70.3651 304.019 70.4558C304.208 70.5466 304.374 70.6713 304.519 70.8257C304.664 70.9843 304.778 71.1648 304.866 71.3793C304.953 71.5898 304.998 71.8103 305.008 72.0447L305.049 72.9904C305.065 73.3605 305.082 73.7635 305.1 74.1911C305.119 74.6229 305.138 75.0669 305.158 75.5275L305.356 80.1534L304.881 80.1738L304.763 77.4311L302.176 77.5421L302.152 76.9911L304.743 76.88L304.537 72.069C304.531 71.9251 304.505 71.7862 304.456 71.6564C304.407 71.5267 304.343 71.41 304.264 71.3063C304.185 71.2026 304.09 71.116 303.985 71.0464C303.879 70.9768 303.767 70.928 303.648 70.9043L303.584 70.8905C303.56 70.8833 303.537 70.8802 303.509 70.8814C303.482 70.8826 303.454 70.8756 303.422 70.8769C303.285 70.8828 303.156 70.9213 303.029 70.9885C302.906 71.0556 302.796 71.1468 302.702 71.258C302.608 71.3691 302.535 71.504 302.483 71.6546C302.43 71.8052 302.41 71.9708 302.417 72.1435L302.6 76.4034L302.124 76.4238L301.941 72.1639C301.931 71.9254 301.961 71.6976 302.03 71.4763C302.099 71.255 302.202 71.0652 302.332 70.8948C302.463 70.7286 302.618 70.5901 302.799 70.4917C302.98 70.3892 303.178 70.3354 303.395 70.3261L303.403 70.334Z" fill="white"/>
<path d="M312.513 38.5816L312.965 49.1163L309.23 59.4557L313.837 69.4373L314.281 79.787L305.02 59.6405L306.881 54.2836L312.513 38.5816Z" fill="white"/>
<path d="M293.406 80.6784L292.954 70.1437L296.689 59.8043L292.082 49.8227L291.638 39.4772L300.899 59.6237L299.038 64.9806L293.406 80.6784Z" fill="white"/>
</g>
<defs>
<linearGradient id="paint0_linear_52_2" x1="719" y1="-16.5493" x2="719" y2="708.199" gradientUnits="userSpaceOnUse">
<stop offset="0.16" stop-color="#0E0707"/>
<stop offset="0.34" stop-color="#110707"/>
<stop offset="0.47" stop-color="#1A0808"/>
<stop offset="0.59" stop-color="#2A0A0B"/>
<stop offset="0.7" stop-color="#410D0F"/>
<stop offset="0.8" stop-color="#5F1113"/>
<stop offset="0.9" stop-color="#821619"/>
<stop offset="0.92" stop-color="#8C181B"/>
</linearGradient>
<clipPath id="clip0_52_2">
<rect width="1464" height="573" fill="white" transform="translate(-13)"/>
</clipPath>
<clipPath id="clip1_52_2">
<rect width="64.9043" height="20.9136" fill="white" transform="translate(312.513 38.5816) rotate(87.5433)"/>
</clipPath>
</defs>
</svg>
